<svg width="32" height="32" viewBox="0 0 32 32" fill="none" xmlns="http://www.w3.org/2000/svg">
  <defs>
    <linearGradient id="fg" x1="0" y1="0" x2="32" y2="32" gradientUnits="userSpaceOnUse">
      <stop stop-color="#6366f1"/>
      <stop offset="0.55" stop-color="#8b5cf6"/>
      <stop offset="1" stop-color="#06b6d4"/>
    </linearGradient>
  </defs>
  <rect width="32" height="32" rx="8" fill="url(#fg)"/>
  <path d="M8 16C8 11.582 11.582 8 16 8C18.485 8 20.712 9.052 22.263 10.737L19.435 13.565C18.626 12.592 17.384 12 16 12C13.791 12 12 13.791 12 16C12 18.209 13.791 20 16 20C17.657 20 19.083 19.009 19.732 17.6H16V14.4H24C24.131 14.921 24.2 15.453 24.2 16C24.2 20.529 20.529 24.2 16 24.2C11.471 24.2 7.8 20.529 7.8 16H8Z" fill="white"/>
</svg>
